<mxfile host="app.diagrams.net" modified="2023-10-31T15:41:34.324Z" agent="Mozilla/5.0 (Windows NT 10.0; Win64; x64) AppleWebKit/537.36 (KHTML, like Gecko) Chrome/118.0.0.0 Safari/537.36" etag="ZvjbdxA_wK_CR9wYJkxg" version="22.0.8" type="device">
  <diagram id="R2lEEEUBdFMjLlhIrx00" name="Page-1">
    <mxGraphModel dx="1434" dy="750" grid="1" gridSize="10" guides="1" tooltips="1" connect="1" arrows="1" fold="1" page="1" pageScale="1" pageWidth="850" pageHeight="1100" math="0" shadow="0" extFonts="Permanent Marker^https://fonts.googleapis.com/css?family=Permanent+Marker">
      <root>
        <mxCell id="0" />
        <mxCell id="1" parent="0" />
        <mxCell id="3Iz5kNF8Gw5MJMtTOOKn-4" value="" style="rounded=1;whiteSpace=wrap;html=1;" vertex="1" parent="1">
          <mxGeometry x="370" y="190" width="120" height="60" as="geometry" />
        </mxCell>
        <mxCell id="3Iz5kNF8Gw5MJMtTOOKn-5" value="" style="ellipse;shape=cloud;whiteSpace=wrap;html=1;" vertex="1" parent="1">
          <mxGeometry x="370" y="250" width="120" height="80" as="geometry" />
        </mxCell>
        <mxCell id="3Iz5kNF8Gw5MJMtTOOKn-6" style="edgeStyle=orthogonalEdgeStyle;rounded=0;orthogonalLoop=1;jettySize=auto;html=1;exitX=0.5;exitY=1;exitDx=0;exitDy=0;" edge="1" parent="1">
          <mxGeometry relative="1" as="geometry">
            <mxPoint x="380" y="580" as="sourcePoint" />
            <mxPoint x="380" y="580" as="targetPoint" />
          </mxGeometry>
        </mxCell>
        <mxCell id="3Iz5kNF8Gw5MJMtTOOKn-8" value="" style="shape=hexagon;perimeter=hexagonPerimeter2;whiteSpace=wrap;html=1;fixedSize=1;" vertex="1" parent="1">
          <mxGeometry x="310" y="350" width="220" height="110" as="geometry" />
        </mxCell>
        <mxCell id="3Iz5kNF8Gw5MJMtTOOKn-16" value="" style="edgeStyle=orthogonalEdgeStyle;rounded=0;orthogonalLoop=1;jettySize=auto;html=1;" edge="1" parent="1" source="3Iz5kNF8Gw5MJMtTOOKn-13" target="3Iz5kNF8Gw5MJMtTOOKn-15">
          <mxGeometry relative="1" as="geometry" />
        </mxCell>
        <mxCell id="3Iz5kNF8Gw5MJMtTOOKn-18" value="" style="edgeStyle=orthogonalEdgeStyle;rounded=0;orthogonalLoop=1;jettySize=auto;html=1;" edge="1" parent="1" source="3Iz5kNF8Gw5MJMtTOOKn-13" target="3Iz5kNF8Gw5MJMtTOOKn-17">
          <mxGeometry relative="1" as="geometry" />
        </mxCell>
        <mxCell id="3Iz5kNF8Gw5MJMtTOOKn-20" value="" style="edgeStyle=orthogonalEdgeStyle;rounded=0;orthogonalLoop=1;jettySize=auto;html=1;" edge="1" parent="1" source="3Iz5kNF8Gw5MJMtTOOKn-13" target="3Iz5kNF8Gw5MJMtTOOKn-19">
          <mxGeometry relative="1" as="geometry" />
        </mxCell>
        <mxCell id="3Iz5kNF8Gw5MJMtTOOKn-21" value="" style="edgeStyle=orthogonalEdgeStyle;rounded=0;orthogonalLoop=1;jettySize=auto;html=1;" edge="1" parent="1" source="3Iz5kNF8Gw5MJMtTOOKn-13" target="3Iz5kNF8Gw5MJMtTOOKn-8">
          <mxGeometry relative="1" as="geometry" />
        </mxCell>
        <mxCell id="3Iz5kNF8Gw5MJMtTOOKn-13" value="" style="shape=process;whiteSpace=wrap;html=1;backgroundOutline=1;" vertex="1" parent="1">
          <mxGeometry x="270" y="510" width="120" height="60" as="geometry" />
        </mxCell>
        <mxCell id="3Iz5kNF8Gw5MJMtTOOKn-15" value="" style="ellipse;whiteSpace=wrap;html=1;" vertex="1" parent="1">
          <mxGeometry x="90" y="500" width="80" height="80" as="geometry" />
        </mxCell>
        <mxCell id="3Iz5kNF8Gw5MJMtTOOKn-17" value="" style="shape=process;whiteSpace=wrap;html=1;backgroundOutline=1;" vertex="1" parent="1">
          <mxGeometry x="470" y="510" width="120" height="60" as="geometry" />
        </mxCell>
        <mxCell id="3Iz5kNF8Gw5MJMtTOOKn-19" value="" style="rhombus;whiteSpace=wrap;html=1;" vertex="1" parent="1">
          <mxGeometry x="290" y="640" width="80" height="80" as="geometry" />
        </mxCell>
      </root>
    </mxGraphModel>
  </diagram>
</mxfile>
